<svg xmlns="http://www.w3.org/2000/svg" viewBox="0 0 620.2 85.4" width="620.2" height="85.4"><defs><style>.cls-1{fill:#00a9c5;}.cls-2{fill:#415863;}</style></defs><title>Asset 1</title><g id="Layer_2" data-name="Layer 2"><g id="Layer_1-2" data-name="Layer 1"><path class="cls-1" d="M283.6,1.7c5.8,0,12.3.7,17.1,4.2,5.4,4,7.9,10.1,7.9,16.7a21.25,21.25,0,0,1-6.2,15.1c-4.7,4.8-9.9,5.9-16.4,5.9h-8.8v12h7V65.8H258V55.6h6.9V12H258V1.7Zm.9,30.9c3.1,0,5.8-.1,8.3-2.2a10.34,10.34,0,0,0,3.5-7.8,9.48,9.48,0,0,0-4-7.8c-2.6-1.9-5.3-2-8.3-2h-6.7V32.6Z"/><path class="cls-1" d="M347.5,59.4c-3.5,5.3-9.2,7.7-15.5,7.7-13.7,0-24.6-11.4-24.6-25a25.35,25.35,0,0,1,25.2-25.5,17.22,17.22,0,0,1,14.9,8.1V17.9h17.2V28.1h-6V55.6h6V65.8H347.5Zm.2-17.8A14.5,14.5,0,1,0,333,56.4a14.62,14.62,0,0,0,14.7-14.8"/><path class="cls-1" d="M380,52c.4,4.3,3.2,7.2,7.7,7.2,3.3,0,6.6-2.3,6.6-5.9,0-4.8-4.5-5.6-8.2-6.6-8.4-2.2-17.5-4.8-17.5-15.3,0-9.2,7.7-14.5,16.3-14.5,4.3,0,8.2.9,10.9,4.3V17.9h8.1v13H393.3a5.94,5.94,0,0,0-6.2-5.7c-3,0-6.1,1.7-6.1,5,0,4.5,4.4,5.5,7.9,6.3,8.6,2,17.9,4.7,17.9,15.5,0,9.7-8.2,15.1-17.2,15.1-4.9,0-9.3-1.5-12.4-5.2v4h-8.4V52Z"/><path class="cls-1" d="M422.3,52c.4,4.3,3.2,7.2,7.7,7.2,3.3,0,6.6-2.3,6.6-5.9,0-4.8-4.5-5.6-8.2-6.6-8.4-2.2-17.5-4.8-17.5-15.3,0-9.2,7.7-14.5,16.3-14.5,4.3,0,8.2.9,10.9,4.3V17.9h8.1v13H435.5a5.94,5.94,0,0,0-6.2-5.7c-3,0-6.1,1.7-6.1,5,0,4.5,4.4,5.5,7.9,6.3,8.6,2,17.9,4.7,17.9,15.5,0,9.7-8.2,15.1-17.2,15.1-4.9,0-9.3-1.5-12.4-5.2v4H411V52Z"/><path class="cls-1" d="M491.7,59.4c-3.5,5.3-9.2,7.7-15.5,7.7-13.7,0-24.6-11.4-24.6-25a25.35,25.35,0,0,1,25.2-25.5,17.22,17.22,0,0,1,14.9,8.1V17.9h17.2V28.1h-6V55.6h6V65.8H491.7Zm.2-17.8a14.5,14.5,0,1,0-14.7,14.8,14.62,14.62,0,0,0,14.7-14.8"/><path class="cls-1" d="M526.3,70c1.9,4,6.6,5.9,10.8,5.9a13.91,13.91,0,0,0,10.2-4.4c3.1-3.6,3.3-6.7,3.3-11.1V58.6c-3.4,5.6-8.9,8-15.4,8-13.7,0-24.3-11.4-24.3-24.8,0-13.2,11.1-24.7,24.4-24.7,6.5,0,12.4,2.2,16,7.8v-7h16.3V28.1h-6.2V59.5c0,7.4-.5,13.1-6,18.6a26.19,26.19,0,0,1-18.8,7.3c-10,0-20.4-4.9-22.9-15.4Zm10.5-13.6a14.65,14.65,0,1,0-14.6-14.7,14.6,14.6,0,0,0,14.6,14.7"/><path class="cls-1" d="M618.3,51.8a24.66,24.66,0,0,1-22.6,15.4,25,25,0,0,1-25.2-25.1c0-14.2,10.7-25.6,25-25.6a26,26,0,0,1,18,7.7c4.8,5,6.7,11.1,6.7,18l-.4,3.9H581a14.79,14.79,0,0,0,14.4,11.5c4.8,0,8.9-1.8,11.6-5.8Zm-8.4-14.2a15.34,15.34,0,0,0-15.1-11.3,14.74,14.74,0,0,0-14,11.3Z"/><path class="cls-2" d="M51,21.9a21,21,0,0,0-17.7-9.8c-12.1,0-21,9.2-21,21.2A21.13,21.13,0,0,0,51.2,44.7H64.4C60.2,57.8,47,67.1,33.2,67.1A34.12,34.12,0,0,1,9.7,57.2,34.05,34.05,0,0,1,0,33.2C0,15.2,14.6,0,32.8,0c7.5,0,14.6,2.5,19.9,7.9V1.5H62.8V22H51Z"/><polygon class="cls-2" points="84.2 55.6 90.4 55.6 90.4 65.9 66.6 65.9 66.6 55.6 73.3 55.6 73.3 12 67.1 12 67.1 1.7 84.2 1.7 84.2 55.6"/><path class="cls-2" d="M91.8,41.7a25.15,25.15,0,1,1,25.1,25.4A25.33,25.33,0,0,1,91.8,41.7m39.5.2c0-7.8-6.2-14.6-14.2-14.6a14.55,14.55,0,1,0,14.2,14.6"/><path class="cls-2" d="M190.9,55.6h6.2V65.8H180.8V59.9c-3.1,4.7-8.9,7.2-14.5,7.2A17.42,17.42,0,0,1,153,61c-3.5-4.1-4.2-8.7-4.2-13.9v-19h-6.2V17.9h17.2v26c0,3.1.1,6.4,1.9,9a9.36,9.36,0,0,0,8.1,4.1,10.33,10.33,0,0,0,8.1-4c2.1-2.9,2.1-6.1,2.1-9.4V28.1h-6.2V17.9H191V55.6Z"/><path class="cls-2" d="M238.9,58.7c-3.6,5.4-9.3,7.9-15.7,7.9-13.4,0-24.4-11.4-24.4-24.7s10.8-24.8,24.4-24.8A20.14,20.14,0,0,1,239,24.9V12h-6.3V1.7H250V55.6h6.2V65.8H239V58.7Zm.3-17a14.5,14.5,0,1,0-14.5,14.8,14.53,14.53,0,0,0,14.5-14.8"/></g></g></svg>
